<svg width="100" height="69" viewBox="0 0 100 69" fill="none" xmlns="http://www.w3.org/2000/svg">
<path d="M23.2842 0.387695C30.8037 0.387695 37.0786 5.79601 38.4434 12.9238L38.459 13.0049H63.0205C67.5597 13.0049 71.2509 16.6961 71.251 21.2354V28.8604H84.4277C88.5179 28.8604 92.28 30.8853 94.4941 34.2754L99.5508 42.0117C99.7078 42.2521 99.792 42.5352 99.792 42.8242V60.4727C99.792 61.2939 99.1278 61.959 98.3066 61.959H92.8848L92.8662 62.0361C91.9745 65.8715 88.5346 68.7412 84.4326 68.7412C80.3306 68.7412 76.8916 65.8715 75.999 62.0361L75.9805 61.959H45.3164L45.2988 62.0361C44.4072 65.8716 40.9682 68.7412 36.8643 68.7412C32.7615 68.741 29.3223 65.8714 28.4307 62.0361L28.4131 61.959H14.2705C13.4502 61.9589 12.7852 61.2938 12.7852 60.4727V58.9072C12.7853 55.7025 14.7218 52.9482 17.4824 51.7305L17.542 51.7041V44.5166H1.58594C0.764802 44.5166 0.0997226 43.8524 0.0996094 43.0312C0.0996094 42.21 0.764732 41.5449 1.58594 41.5449H17.542V38.1738H11.0986C10.2785 38.1738 9.61345 37.5104 9.61328 36.6895C9.61328 35.8683 10.2784 35.2032 11.0986 35.2031H17.542V31.832H1.58594C0.764848 31.832 0.0997966 31.1677 0.0996094 30.3467C0.0996094 29.5255 0.764732 28.8604 1.58594 28.8604H15.0088L14.7344 28.6768C10.5839 25.9055 7.84286 21.1832 7.84277 15.8301C7.84277 7.31612 14.7694 0.387856 23.2842 0.387695ZM36.8643 54.3818C33.7254 54.3821 31.1699 56.9372 31.1699 60.0762C31.1699 63.216 33.7254 65.7703 36.8643 65.7705C40.0042 65.7705 42.5586 63.2161 42.5586 60.0762C42.5586 56.9371 40.0043 54.3818 36.8643 54.3818ZM84.4326 54.3818C81.2935 54.3818 78.7383 56.9371 78.7383 60.0762C78.7383 63.2162 81.2936 65.7705 84.4326 65.7705C87.5726 65.7705 90.1269 63.2161 90.127 60.0762C90.127 56.9371 87.5726 54.3819 84.4326 54.3818ZM20.6328 54.0303C17.9511 54.0303 15.767 56.2078 15.7559 58.8867L15.7549 58.9863H28.2773L28.2891 58.9004C28.5348 57.0979 29.3361 55.4729 30.5166 54.1982L30.6719 54.0303H20.6328ZM43.2129 54.1982C44.3942 55.4729 45.1948 57.0978 45.4414 58.9004L45.4531 58.9863H68.2803V54.0303H43.0576L43.2129 54.1982ZM38.7148 16.0742C38.6319 21.3256 35.9212 25.9479 31.835 28.6768L31.5605 28.8604H41.2246C42.0449 28.8604 42.7109 29.5255 42.7109 30.3467C42.7107 31.1677 42.0448 31.832 41.2246 31.832H20.5127V35.2031H31.7119C32.5322 35.2031 33.1973 35.8682 33.1973 36.6895C33.1971 37.5105 32.5321 38.1738 31.7119 38.1738H20.5127V41.5449H23.7832C24.6044 41.5449 25.2695 42.21 25.2695 43.0312C25.2694 43.8524 24.6043 44.5166 23.7832 44.5166H20.5127V51.0605H20.6123C20.6236 51.0605 20.6338 51.059 20.6367 51.0586H68.2803V21.2354C68.2802 18.3358 65.921 15.9756 63.0215 15.9756H38.7158L38.7148 16.0742ZM23.2842 3.35938C16.4081 3.35954 10.8135 8.954 10.8135 15.8301C10.8136 22.706 16.4082 28.3006 23.2842 28.3008C30.1612 28.3008 35.7547 22.7061 35.7549 15.8301C35.7549 8.95391 30.1613 3.35938 23.2842 3.35938ZM96.8203 43.2666L96.8047 43.2412L92.0078 35.8994C90.3432 33.3521 87.5085 31.832 84.4277 31.832H71.251V58.9863H75.8447L75.8564 58.9004C76.4341 54.6784 80.0551 51.4111 84.4326 51.4111C88.8101 51.4112 92.4321 54.6785 93.0088 58.9004L93.0205 58.9863H96.8203V43.2666Z" fill="#64D370" stroke="#E5E5E5" stroke-width="0.2"/>
<path d="M23.7827 7.40747C24.604 7.40747 25.269 8.07172 25.269 8.89282V15.8303C25.269 16.1455 25.1682 16.4511 24.9839 16.7043L21.4429 21.5608C21.1522 21.9601 20.7 22.1721 20.2417 22.1721C19.9383 22.1721 19.6321 22.0789 19.3667 21.885C18.7039 21.4022 18.5588 20.4738 19.0425 19.8108L22.2788 15.3713L22.2974 15.345V8.89282C22.2974 8.07173 22.9625 7.40755 23.7827 7.40747Z" fill="#64D370" stroke="#E5E5E5" stroke-width="0.2"/>
<path d="M80.8652 33.6169H83.8984C86.4718 33.617 88.8636 35.0065 90.1387 37.238L93.8418 43.7185C94.3157 44.5449 94.3149 45.5358 93.834 46.364C93.3529 47.1924 92.4955 47.6881 91.5371 47.6882H80.8652C80.044 47.6882 79.3789 47.0231 79.3789 46.2019V35.1033C79.3789 34.2821 80.044 33.6169 80.8652 33.6169ZM82.3516 44.7166H90.9893L90.9043 44.5671L87.5586 38.7126C86.8104 37.4023 85.4085 36.5897 83.8984 36.5896H82.3516V44.7166Z" fill="#64D370" stroke="#E5E5E5" stroke-width="0.2"/>
</svg>
