<svg width="48" height="63" viewBox="0 0 48 63" fill="none" xmlns="http://www.w3.org/2000/svg">
<path d="M12.239 6.54121C14.5814 5.43115 17.32 6.11281 18.895 8.03062L19.0611 8.23289L19.2561 8.05834C20.1558 7.24939 21.3002 6.75558 22.5473 6.66399C24.0237 6.55543 25.4527 7.02717 26.573 7.99392C27.6936 8.96085 28.3699 10.3052 28.478 11.7813C28.5116 12.2411 28.401 13.1656 27.1131 16.4309C26.6475 17.6113 26.1528 18.7801 25.7812 19.6384L25.6701 19.8942L25.937 19.9763C28.4828 20.7596 30.7045 22.566 31.9319 25.156C33.2252 27.8848 35.4597 34.9684 36.8007 41.6351C37.5488 45.3542 37.9252 48.4375 37.923 50.8034C37.9215 52.4016 37.7423 53.6514 37.3933 54.5795C37.0461 55.5027 36.5362 56.0954 35.8725 56.41C35.2087 56.7246 34.4264 56.7443 33.4919 56.4284C32.5526 56.1108 31.4717 55.4581 30.2339 54.4472C28.4014 52.9508 26.2533 50.7071 23.8485 47.7731C19.5379 42.5137 15.4712 36.2983 14.1781 33.5694C12.9507 30.9794 12.9585 28.1165 13.9643 25.65L14.0698 25.3915L13.8015 25.3155C12.9021 25.0596 11.6845 24.7026 10.4756 24.3153C7.55107 23.3785 6.58416 22.8783 6.1641 22.5556L6.01349 22.427C4.93922 21.4086 4.32726 20.0339 4.2885 18.5544C4.24978 17.0753 4.78877 15.6707 5.80745 14.5969C6.66808 13.6896 7.77567 13.1161 8.9716 12.9321L9.2293 12.8921L9.17793 12.6355C8.69088 10.2022 9.89692 7.65133 12.239 6.54121ZM19.5651 21.9984C15.5048 23.9226 13.7672 28.7915 15.6916 32.8522C16.9544 35.5172 20.9261 41.5643 25.1447 46.7114C25.2942 46.8939 25.4408 47.072 25.5864 47.2467L25.7108 47.3952L29.4658 45.6157C29.8837 45.4177 30.3831 45.5955 30.5814 46.0132C30.7795 46.4313 30.6011 46.9311 30.183 47.1292L26.8393 48.7138L27.0612 48.9631C29.4002 51.5987 31.185 53.1705 32.486 54.0413C33.136 54.4763 33.6739 54.7418 34.1056 54.8753C34.529 55.0062 34.8899 55.0213 35.1549 54.8957C35.4521 54.7547 35.6911 54.407 35.8674 53.8999C36.0478 53.3809 36.1801 52.6447 36.2282 51.6465C36.3243 49.6482 36.083 46.5589 35.1592 41.9656C33.8467 35.4413 31.6814 28.5382 30.4185 25.8733C28.4941 21.8128 23.6255 20.0743 19.5651 21.9984ZM9.62288 14.5481C8.63888 14.5985 7.71471 15.0196 7.02242 15.7491C6.3121 16.4978 5.93542 17.4799 5.96247 18.5111C5.98949 19.5419 6.41716 20.5017 7.1653 21.2112L7.17129 21.217L7.17687 21.2219C7.31873 21.3409 7.60382 21.4839 7.98044 21.6451C8.36882 21.8114 8.88733 22.0096 9.52445 22.2329C10.7996 22.6798 12.5603 23.2315 14.7295 23.8372L14.9002 23.8849L15.0019 23.7394C15.3431 23.249 15.7312 22.787 16.1624 22.3617L16.3319 22.1949L16.1732 22.0172C13.2459 18.738 11.0439 16.2107 10.0299 14.6567L9.95541 14.5429L9.82043 14.5431L9.62288 14.5481ZM22.6698 8.33395C21.6001 8.41264 20.6347 8.91798 19.9646 9.73587L19.879 9.84021L19.9199 9.96994C20.5051 11.8096 21.1019 15.294 21.7516 19.3834L21.789 19.6174L22.025 19.5932C22.6192 19.531 23.2137 19.5236 23.8012 19.5695L23.9783 19.5828L24.0494 19.4205C24.9544 17.3578 25.6422 15.6452 26.1038 14.374C26.3344 13.7387 26.5103 13.2114 26.6274 12.8041C26.7411 12.4089 26.8095 12.0957 26.8071 11.9085L26.8065 11.8936C26.7317 10.8745 26.2593 9.93592 25.4786 9.26253C24.6976 8.58859 23.6991 8.25825 22.6698 8.33395ZM12.9562 8.05467C11.03 8.96775 10.2046 11.2764 11.1169 13.2014C11.2781 13.5416 11.6036 14.0201 12.0261 14.5796C12.4522 15.144 12.9895 15.8058 13.5866 16.5158C14.7811 17.936 16.2223 19.5589 17.5095 20.9992L17.6499 21.1564L17.8288 21.0435C18.1536 20.8398 18.4935 20.6529 18.8479 20.4849C19.21 20.3134 19.5776 20.1662 19.9489 20.0421L20.1495 19.9751L20.1172 19.7656C19.8418 18.0261 19.4969 15.8954 19.1443 14.0366C18.9681 13.1075 18.7892 12.2438 18.6154 11.5294C18.443 10.821 18.2713 10.2401 18.1053 9.8897C17.1929 7.96448 14.8829 7.14165 12.9562 8.05467Z" fill="black" stroke="#F5FAFF" stroke-width="0.5"/>
<path d="M18.1551 30.6946L21.6321 29.0469C22.0501 28.8488 22.55 29.0272 22.7481 29.4452C22.946 29.8632 22.7673 30.3623 22.3493 30.5604L18.8723 32.2081C18.4543 32.4061 17.9549 32.2285 17.7567 31.8106C17.5586 31.3926 17.737 30.8927 18.1551 30.6946Z" fill="black" stroke="#F5FAFF" stroke-width="0.5"/>
<path d="M24.6741 36.3943L30.2382 33.7575C30.6562 33.5594 31.1561 33.7379 31.3542 34.1559C31.5521 34.5739 31.3734 35.0729 30.9554 35.271L25.3914 37.9078C24.9734 38.1058 24.474 37.9282 24.2758 37.5103C24.09 37.1184 24.2348 36.6543 24.5981 36.4346L24.6741 36.3943Z" fill="black" stroke="#F5FAFF" stroke-width="0.5"/>
</svg>
