<svg width="69" height="69" viewBox="0 0 69 69" fill="none" xmlns="http://www.w3.org/2000/svg">
<path d="M34.084 0.25C52.7403 0.250161 67.917 15.4277 67.917 34.084C67.9168 52.7402 52.7402 67.9168 34.084 67.917C15.4277 67.917 0.250161 52.7403 0.25 34.084C0.25 15.4276 15.4276 0.25 34.084 0.25ZM34.084 4.01074C17.5006 4.01074 4.01074 17.5006 4.01074 34.084C4.0109 50.6672 17.5007 64.1572 34.084 64.1572C50.6671 64.1571 64.1571 50.6671 64.1572 34.084C64.1572 17.5007 50.6672 4.0109 34.084 4.01074Z" fill="#64D370" stroke="#E5E5E5" stroke-width="0.5"/>
<path d="M34.084 13.7412C35.1217 13.7412 35.9647 14.5834 35.9648 15.6211V34.7236L50.3252 49.084C51.0595 49.8185 51.0596 51.0097 50.3252 51.7441H50.3242C49.9583 52.1123 49.4782 52.2959 48.9961 52.2959C48.514 52.2959 48.0339 52.1124 47.668 51.7441H47.667L32.7559 36.832C32.4022 36.4784 32.2041 35.9997 32.2041 35.5039V15.6211C32.2043 14.5835 33.0464 13.7414 34.084 13.7412Z" fill="#64D370" stroke="#E5E5E5" stroke-width="0.5"/>
</svg>
