<svg width="40" height="40" viewBox="0 0 40 40" fill="none" xmlns="http://www.w3.org/2000/svg">
<path d="M31.0364 14.905C30.3781 14.905 29.8843 15.4287 29.8843 16.0572C29.8843 16.6707 30.3781 17.2094 31.0364 17.2094C31.6649 17.2094 32.1886 16.7006 32.1886 16.0572C32.1886 15.4138 31.6649 14.905 31.0364 14.905Z" fill="#020202"/>
<path d="M7.27741 11.1025C6.67888 11.1025 6.22998 11.5814 6.22998 12.135C6.22998 12.6886 6.67888 13.1675 7.27741 13.1675C7.84601 13.1675 8.30987 12.7036 8.30987 12.135C8.30987 11.5664 7.84601 11.1025 7.27741 11.1025Z" fill="#020202"/>
<path d="M10.5615 1.27148C14.3169 -0.0295784 18.1144 -0.0593815 21.2725 2.19629C23.0535 3.46639 24.1382 5.14953 24.7266 6.29688L24.7822 6.40527L24.9014 6.42773C33.4302 8.07753 38.0148 14.6094 39.3359 23.2637L39.3369 23.2666C39.371 23.4713 39.3263 23.6965 39.2031 23.9062C39.0437 24.1665 38.8438 24.2461 38.4268 24.416L38.4229 24.418C33.6777 26.4516 27.6511 26.0008 22.5439 24.9854H22.5449C17.5831 23.987 13.7826 22.4973 13.5449 22.4082H13.5439C12.0882 21.8494 10.6817 21.6799 9.34082 21.9131C7.9991 22.1464 6.73862 22.7795 5.57227 23.7998C4.28541 24.9181 3.44645 26.2323 3.03711 26.9297L2.96191 27.0586L3.03906 27.1855C4.62017 29.7951 6.87853 31.1936 9.76758 31.3018H9.76855C10.9579 31.3401 12.0404 31.1514 12.8262 30.9531C13.2195 30.8538 13.5404 30.7518 13.7646 30.6729C13.8768 30.6334 13.9655 30.6 14.0273 30.5752C14.0581 30.5629 14.0833 30.5519 14.1016 30.5439C14.1104 30.5401 14.1195 30.5368 14.127 30.5332C14.128 30.5327 14.1286 30.5309 14.1299 30.5303C14.6527 30.2998 15.261 30.6261 15.3662 31.1875V31.1885C15.898 33.9806 15.5467 36.0592 14.375 37.4434C13.0429 39.0022 11.1205 39.0761 10.8242 39.0762C10.6922 39.0762 10.5738 39.0505 10.4619 39.002L10.3516 38.9453C10.1914 38.849 8.30701 37.6991 6.24512 35.6943C4.16869 33.6754 1.93089 30.8078 1.07129 27.2959C0.103081 23.3372 0.759555 18.8617 3.64551 14.749L3.93262 14.3516C4.25745 13.9107 4.90043 13.8705 5.29004 14.2598C5.56597 14.5357 5.62831 14.9452 5.45801 15.2881L5.37109 15.4307L5.37012 15.4316C3.08983 18.5329 2.49379 21.564 2.47852 23.8076L2.47363 24.5078L2.9209 23.9688C4.53879 22.0199 6.38197 20.8225 8.30371 20.3047C10.2253 19.7871 12.2428 19.9444 14.2178 20.7344C14.3044 20.769 18.1045 22.2556 22.9707 23.2168L23.4365 23.3086L23.248 22.8721C22.1085 20.2301 21.6104 17.5988 21.9482 15.1953C22.2853 12.7981 23.4558 10.6111 25.6875 8.84766L26.0801 8.53809L25.5967 8.41016C23.7355 7.91826 21.751 7.7533 19.7959 7.83105L18.96 7.87891C17.1031 8.01483 14.9372 8.40676 13.1865 9.0918L13.1855 9.09277C12.4472 9.38506 11.7434 9.76776 10.9111 10.3125L10.9102 10.3145C10.871 10.3406 10.8333 10.3613 10.7852 10.3906C10.7444 10.4154 10.697 10.4455 10.6504 10.4814C10.3032 10.7245 9.82483 10.6803 9.51953 10.375L9.5166 10.373L9.44629 10.2959C9.11979 9.89593 9.20609 9.29109 9.64746 8.99316L9.64648 8.99219C9.73535 8.93294 9.82422 8.8737 9.91309 8.81445L9.91406 8.81543C11.5049 7.7696 12.8832 7.13876 15.1719 6.63672L15.5 6.56445L15.3369 6.27051C14.6494 5.03608 13.4576 3.63736 10.6699 3.00586L10.6631 3.00488L10.5078 2.95996C9.77645 2.67813 9.72459 1.57051 10.5615 1.27148ZM6.28027 32.377L5.99414 32.7686C7.9608 35.1133 10.197 36.6997 10.9863 37.2158L11.0654 37.2686L11.1602 37.2539C11.5892 37.1903 12.4242 36.9814 13.0352 36.2549L13.0371 36.2539C13.6654 35.4934 13.9036 34.3228 13.7969 32.874L13.7744 32.5713L13.4814 32.6504C11.0981 33.2977 8.55271 33.3092 6.28027 32.377ZM28.0684 9.39453C25.9162 10.6766 24.52 12.3397 23.9453 14.374C22.9438 17.9024 24.5754 21.7069 25.5664 23.5537L25.627 23.665L25.7529 23.6826C29.4323 24.1932 33.7327 24.2901 37.2637 22.9355L37.458 22.8604L37.4199 22.6562C36.3342 16.896 33.639 11.8685 28.3018 9.38281L28.1816 9.32715L28.0684 9.39453ZM22.2627 5.67578C20.9249 3.84616 18.5294 1.88482 14.5742 2.20801L13.875 2.26465L14.4531 2.66309C16.0308 3.74876 16.7855 5.10883 17.2568 6.0957L17.335 6.25977L17.5146 6.23633C18.7587 6.07341 20.3289 5.96966 22.0459 6.07324L22.5771 6.10547L22.2627 5.67578Z" fill="#020202" stroke="#F5FAFF" stroke-width="0.5"/>
</svg>
