<svg width="69" height="68" viewBox="0 0 69 68" fill="none" xmlns="http://www.w3.org/2000/svg">
<path d="M60.6001 12.321H66.4126C67.1201 12.3211 67.6938 12.8948 67.6938 13.6023C67.6938 14.3098 67.1201 14.8835 66.4126 14.8835H63.2192L63.269 14.9607C67.2982 21.122 69.2284 28.4744 68.7241 35.8904C68.1664 44.0898 64.6552 51.8096 58.8374 57.6277C52.3219 64.1431 43.6347 67.6062 34.7808 67.6062C30.5046 67.6062 26.1902 66.7985 22.061 65.1375C21.4046 64.8734 21.0859 64.1269 21.3501 63.4705C21.6143 62.814 22.3607 62.4966 23.0171 62.7605C34.7411 67.4772 48.09 64.751 57.0249 55.8162C67.1566 45.6844 69.0327 29.8779 61.9741 17.738L61.8813 17.5779V19.4148C61.8813 20.1223 61.3076 20.696 60.6001 20.696C59.8926 20.696 59.3189 20.1223 59.3188 19.4148V13.6023C59.3189 12.8948 59.8926 12.321 60.6001 12.321Z" fill="#64D370" stroke="#E5E5E5" stroke-width="0.1"/>
<path d="M27.6357 0.818604C34.1652 -0.433809 40.8576 0.231548 46.9893 2.74341C47.6439 3.01153 47.9576 3.76052 47.6895 4.41528C47.4211 5.06952 46.6733 5.38275 46.0186 5.1145C34.2451 0.291439 20.8235 2.98828 11.8271 11.9846C1.61238 22.1996 -0.209423 38.1833 7.05566 50.3616L7.14941 50.5178V48.4417C7.14941 47.7343 7.72236 47.1606 8.42969 47.1604C9.13723 47.1604 9.71107 47.7341 9.71094 48.4417V54.3762C9.71075 55.0836 9.13711 55.6565 8.42969 55.6565H2.49609C1.78867 55.6565 1.21503 55.0836 1.21484 54.3762C1.21484 53.6687 1.78856 53.095 2.49609 53.095H5.75195L5.7002 53.0168C1.59176 46.8196 -0.380231 39.3976 0.128906 31.9104C0.686593 23.7111 4.19772 15.9913 10.0156 10.1731C14.8517 5.337 20.9448 2.10205 27.6357 0.818604Z" fill="#64D370" stroke="#E5E5E5" stroke-width="0.1"/>
<path d="M31.2184 28.7613C31.4284 28.6574 31.6714 28.6411 31.8934 28.7161C32.115 28.7912 32.2982 28.951 32.402 29.1608L36.8011 38.0552C36.9048 38.265 36.9207 38.5075 36.8458 38.7293C36.7707 38.9512 36.6103 39.1345 36.4003 39.2383C36.1903 39.3421 35.948 39.358 35.7262 39.283C35.5044 39.208 35.3215 39.0482 35.2176 38.8384L30.8185 29.9439C30.7147 29.734 30.6988 29.4918 30.7738 29.2699C30.8488 29.048 31.0085 28.8651 31.2184 28.7613Z" fill="#64D370" stroke="#64D370" stroke-width="0.2"/>
<path d="M34.9635 26.9092C35.1735 26.8053 35.4166 26.789 35.6385 26.8641C35.8602 26.9392 36.0433 27.0989 36.1471 27.3087L40.5462 36.2031C40.6499 36.413 40.6658 36.6555 40.5909 36.8772C40.5158 37.0991 40.3554 37.2824 40.1454 37.3863C39.9355 37.49 39.6932 37.5059 39.4713 37.4309C39.2495 37.3559 39.0666 37.1962 38.9627 36.9863L34.5636 28.0919C34.4598 27.8819 34.4439 27.6397 34.5189 27.4178C34.5939 27.1959 34.7536 27.0131 34.9635 26.9092Z" fill="#64D370" stroke="#64D370" stroke-width="0.2"/>
<path d="M17.8997 25.0289C17.2814 26.0781 16.7688 27.1861 16.3712 28.3375L16.3699 28.3371C14.3443 34.3281 17.8809 38.8759 19.6935 40.7094L22.1144 33.5504L17.8997 25.0289ZM28.6542 14.2004C26.1694 15.9007 21.9909 19.1215 19.0252 23.3174L22.9134 31.1789L28.6542 14.2004ZM49.5803 53.2921C49.684 53.502 49.7 53.7444 49.625 53.9662C49.5499 54.188 49.3902 54.3709 49.1803 54.4748C48.9703 54.5787 48.7273 54.595 48.5054 54.5199C48.2837 54.4449 48.1006 54.2851 47.9968 54.0753L44.7207 47.4515C43.9283 45.9107 43.6442 44.1584 43.9087 42.4461L43.9087 42.4439L44.2104 40.7563C44.3907 39.4997 44.2005 38.2194 43.6652 37.0723L38.308 26.2407C38.2041 26.0307 38.1879 25.7876 38.2628 25.5657C38.3379 25.3438 38.4984 25.1606 38.7083 25.0567C38.9183 24.9528 39.1614 24.9365 39.3833 25.0116C39.6052 25.0866 39.7885 25.2471 39.8923 25.4571L42.2826 30.2899C46.5246 26.1831 49.2869 20.7367 50.3021 18.5642C47.5889 17.9531 39.8483 16.5449 33.232 18.4339C33.7162 20.4828 34.041 22.5661 34.2016 24.6655L34.202 24.6664C34.2191 24.8999 34.1431 25.131 33.9901 25.3083C33.8369 25.4857 33.6189 25.5947 33.3852 25.6118C33.1518 25.6288 32.9213 25.5523 32.7441 25.3994C32.5667 25.2463 32.4568 25.0287 32.4397 24.795C32.143 21.3769 31.4357 18.0078 30.3367 14.7584L21.3669 41.2621C23.3344 40.9663 27.0888 40.0083 29.6099 36.9248L27.0737 31.797C26.9699 31.587 26.9536 31.344 27.0286 31.1221C27.1037 30.9002 27.2641 30.7169 27.4741 30.613C27.6839 30.5094 27.9264 30.4935 28.1482 30.5684C28.3701 30.6434 28.5534 30.8039 28.6572 31.0139L33.9019 41.6178C34.4823 42.8416 35.4299 43.8538 36.6123 44.5142L38.1358 45.2991L38.1384 45.3C39.6601 46.1287 40.8804 47.4181 41.6237 48.9833L44.8998 55.607C45.0034 55.8168 45.0193 56.0594 44.9445 56.2811C44.8694 56.503 44.709 56.6863 44.499 56.7902C44.289 56.894 44.0459 56.9103 43.824 56.8353C43.6024 56.7602 43.4192 56.6003 43.3154 56.3907L40.0385 49.7651C39.4568 48.5485 38.5125 47.542 37.3349 46.8849L37.3345 46.884L35.8041 46.083L35.8028 46.0825C34.2809 45.2537 33.0603 43.9639 32.3171 42.3984L30.4589 38.6414C29.3495 39.8277 28.0336 40.8022 26.5721 41.5127C24.5524 42.5003 22.3524 43.0654 20.1069 43.1731L20.0614 43.1956L20.033 43.1933L19.954 43.1855L19.9461 43.185L19.9387 43.1833L19.8131 43.1517L19.7996 43.1486L19.7991 43.1477L19.7285 43.1195L19.7233 43.1177C19.6715 43.0942 19.6218 43.0658 19.5756 43.0327L19.5551 43.0178L19.5369 42.981C19.2443 42.7433 17.3623 41.1379 15.8798 38.5406C14.3592 35.8766 13.2559 32.1633 14.7261 27.8155C16.4313 22.7617 20.4806 18.5561 23.5648 15.9222C25.5375 14.2246 27.6551 12.7028 29.8928 11.3739L29.8993 11.3696L29.8998 11.3705L30.0985 11.2722L30.1059 11.2696C30.1681 11.2497 30.2324 11.2377 30.2974 11.2316L30.3324 11.2143L30.3551 11.2139C30.3915 11.2136 30.4278 11.2159 30.4638 11.2201L30.5712 11.2389L30.5747 11.2393C30.6516 11.2611 30.7254 11.294 30.7935 11.3359L30.8174 11.3513L30.833 11.3828C30.8582 11.4003 30.883 11.4182 30.9062 11.4382L30.9931 11.5237L30.9988 11.5307L31.0031 11.5373L31.1122 11.7579C31.7709 13.3759 32.3258 15.0343 32.7765 16.7221C40.29 14.5977 48.8464 16.3929 51.1852 16.9508L51.7864 17.1002L51.796 17.102L51.7951 17.1024L51.8671 17.1267L51.8745 17.1307C51.9073 17.149 51.9385 17.1706 51.9686 17.1931L52.0444 17.2384L52.1162 17.2911L52.1218 17.296L52.121 17.2964C52.1587 17.3328 52.1931 17.373 52.2235 17.4156L52.2787 17.4853C52.3284 17.558 52.3626 17.6408 52.3781 17.7281L52.3781 17.7303C52.3877 17.7928 52.3886 17.856 52.3842 17.919L52.3856 17.9195C52.3877 17.9749 52.3833 18.0302 52.3748 18.0849C52.375 18.1262 52.3731 18.1677 52.3673 18.2085L52.3655 18.2203L52.3611 18.2312L52.3377 18.2896L52.3363 18.2892C52.2009 18.6306 49.0108 26.4664 43.1013 31.9452L45.1352 36.0576L45.279 36.3504C45.9689 37.8234 46.2064 39.4708 45.9572 41.0832L45.9572 41.0853L45.9563 41.0858L45.6555 42.7729C45.4642 44.1065 45.6903 45.4668 46.3034 46.6666L49.5803 53.2921Z" fill="#64D370" stroke="#64D370" stroke-width="0.2"/>
</svg>
