<svg width="54" height="45" viewBox="0 0 54 45" fill="none" xmlns="http://www.w3.org/2000/svg">
<path d="M15.6347 6.19161C18.7804 5.6221 26.9037 4.37188 34.4259 5.04229C38.3364 5.39084 41.5232 6.21944 43.902 7.49983C46.8419 9.08232 48.5925 11.3598 49.1192 14.2695L50.2538 20.5358C51.3164 26.4051 47.4062 32.0454 41.5368 33.1082C37.0187 33.9262 34.0481 35.8491 31.1891 37.699C28.4242 39.488 25.828 41.1665 22.0895 41.8434C13.9883 43.3102 6.20334 37.9121 4.73659 29.8108L3.60207 23.5445C2.13534 15.4433 7.53351 7.65834 15.6347 6.19161ZM15.9237 7.78773C8.70233 9.09517 3.89076 16.0342 5.1982 23.2555C6.50564 30.4768 13.4445 35.2875 20.6658 33.9801C24.0896 33.3601 26.5672 31.7558 29.1727 30.07C32.1811 28.1235 35.2786 26.1201 40.1131 25.2449C40.3945 25.1939 40.6761 25.1292 40.9506 25.0525C41.3815 24.9321 41.8303 25.1845 41.9508 25.6158C42.0711 26.047 41.8186 26.4944 41.3873 26.615C41.0644 26.7051 40.733 26.7811 40.4021 26.841C35.8841 27.659 32.9134 29.5819 30.0544 31.4317C27.2895 33.2207 24.6933 34.8993 20.9548 35.5762C15.4092 36.5802 10.0119 34.3675 6.68792 30.2723L6.51316 30.3595C8.18569 37.1108 14.8623 41.5035 21.8005 40.2473C25.2243 39.6274 27.7019 38.023 30.3074 36.3372C33.3158 34.3907 36.4133 32.3874 41.2478 31.5121C46.2373 30.6086 49.562 25.8143 48.6586 20.8246L48.5365 20.15L48.4052 20.4556C48.1189 21.1225 47.7647 21.7634 47.3459 22.3663L47.1629 22.6217C46.8967 22.9818 46.3888 23.0584 46.0286 22.7924C45.6685 22.5263 45.5921 22.0183 45.858 21.6581C47.364 19.6201 47.9719 17.0323 47.5241 14.5583C47.1125 12.2849 45.7826 10.4836 43.5643 9.16476C41.3492 7.84791 38.247 7.01171 34.2818 6.65827C26.9527 6.00515 19.0007 7.23065 15.9237 7.78773Z" fill="#020202" stroke="#F5FAFF" stroke-width="0.2"/>
<path d="M44.1241 23.4462C44.4886 23.1866 44.9951 23.2709 45.255 23.6354C45.5125 23.9969 45.431 24.498 45.0745 24.7598L45.0736 24.76C44.9704 24.8361 44.8558 24.8847 44.7378 24.9061C44.4447 24.9592 44.1332 24.8477 43.9428 24.5935C43.675 24.2354 43.7471 23.7272 44.1046 23.4587L44.1057 23.4595C44.112 23.4548 44.1187 23.4495 44.1232 23.4464L44.1241 23.4462Z" fill="#020202" stroke="#F5FAFF" stroke-width="0.2"/>
<path d="M17.7891 13.1872C20.2499 12.7419 22.5638 14.1964 22.9638 16.4057C23.3637 18.6148 21.7065 20.7874 19.2458 21.2332C16.785 21.6787 14.4704 20.2251 14.0703 18.0158C13.6703 15.8065 15.3282 13.6327 17.7891 13.1872ZM18.078 14.7833C16.5222 15.065 15.4214 16.3738 15.6664 17.7269C15.9115 19.0798 17.4011 19.9187 18.9568 19.637C20.5123 19.3552 21.6125 18.0475 21.3677 16.6946C21.1227 15.3417 19.6337 14.5019 18.078 14.7833Z" fill="#020202" stroke="#F5FAFF" stroke-width="0.2"/>
</svg>
