<svg width="63" height="63" viewBox="0 0 63 63" fill="none" xmlns="http://www.w3.org/2000/svg">
<path d="M42.7095 6.08472C44.5827 6.08472 46.759 6.16613 48.6509 6.77319C48.8633 6.84134 49.0492 6.9737 49.1831 7.1521C49.3171 7.33079 49.3931 7.547 49.3989 7.77026C49.4047 7.99359 49.3409 8.21371 49.2163 8.39917C49.0918 8.58452 48.9124 8.72628 48.7036 8.80542C43.974 10.6009 40.6695 15.4296 40.6694 20.5466C40.6694 27.3345 46.0606 32.855 52.6851 32.8552C55.1651 32.8552 57.1556 32.3037 58.9517 31.1208C59.1395 30.9972 59.3617 30.9353 59.5864 30.9441C59.811 30.953 60.0271 31.0318 60.2046 31.1697C60.3822 31.3076 60.5126 31.4981 60.5767 31.7136C60.6406 31.929 60.6353 32.1594 60.562 32.3718C58.6799 37.8226 54.6088 42.0283 49.4409 43.989C50.6701 44.9536 51.668 46.1815 52.3589 47.5837C53.0625 49.012 53.4293 50.5824 53.4321 52.1746C53.4321 57.9596 48.6676 62.6658 42.812 62.6658H10.7124C5.33546 62.6658 0.959657 58.3441 0.959473 53.031C0.956295 50.5134 1.95134 48.0969 3.72705 46.3123L4.00537 46.0417C5.40406 44.7316 7.16019 43.8613 9.05518 43.5437C8.8649 42.7261 8.76862 41.8891 8.76807 41.0496C8.76827 34.7929 13.9216 29.7039 20.2554 29.7039C21.5713 29.7042 22.8768 29.9316 24.1157 30.3738C23.7397 28.8262 23.5499 27.2391 23.5513 25.6462C23.5513 14.861 32.1447 6.08485 42.7095 6.08472ZM20.2544 31.8572C15.1077 31.8574 10.9216 35.9821 10.9214 41.0496C10.9239 42.097 11.108 43.1366 11.4663 44.1208C11.524 44.2809 11.5433 44.4521 11.522 44.6208C11.5006 44.7895 11.4398 44.951 11.3442 45.0916C11.2485 45.2322 11.1204 45.3486 10.9712 45.4304C10.8221 45.5121 10.6557 45.5572 10.4858 45.5623C8.63995 45.6099 6.87816 46.326 5.5249 47.5701L5.25928 47.8259C3.88297 49.2082 3.11092 51.0804 3.11279 53.031C3.11298 57.155 6.52182 60.5115 10.7124 60.5115H42.812C47.4811 60.5115 51.2788 56.7705 51.2788 52.1746C51.2786 47.5787 47.4808 43.8379 42.812 43.8376C42.2481 43.8381 41.6855 43.8939 41.1323 44.0037C40.8533 44.059 40.5635 44.0019 40.3267 43.8445C40.0898 43.6869 39.9245 43.4416 39.8677 43.1628C39.2403 40.084 36.4655 37.8484 33.269 37.8484C32.2971 37.8483 31.3362 38.0579 30.4526 38.4626C30.3185 38.5236 30.1732 38.5558 30.0259 38.5583C29.8784 38.5609 29.7315 38.5337 29.5952 38.4773C29.459 38.4209 29.3355 38.3371 29.2329 38.2312C29.1304 38.1253 29.0514 37.999 28.9995 37.8611C27.6483 34.271 24.1335 31.8572 20.2544 31.8572ZM42.7095 8.23804C33.3346 8.23817 25.7056 16.0466 25.7056 25.6462C25.7018 27.7194 26.0623 29.7771 26.771 31.7253C28.3991 32.8334 29.7124 34.3437 30.5845 36.1091C31.4527 35.834 32.3581 35.6943 33.269 35.6951C37.1342 35.6951 40.5337 38.1836 41.7124 41.7419C43.4995 41.5573 45.3046 41.8241 46.9614 42.5193C51.4363 41.3661 55.1708 38.3805 57.3794 34.282C55.9595 34.7724 54.4193 35.0095 52.6851 35.0095C44.8708 35.0093 38.5151 28.5201 38.5151 20.5466C38.5152 15.6655 41.0869 11.0083 45.0386 8.3103C44.248 8.25275 43.4549 8.23804 42.7095 8.23804Z" fill="#64D370" stroke="#64D370" stroke-width="0.1"/>
<path d="M54.4092 15.3271C54.6948 15.3271 54.9689 15.4406 55.1709 15.6426C55.3728 15.8445 55.4863 16.1188 55.4863 16.4043V17.9902L57.1494 17.4365L57.1504 17.4355C57.4203 17.3487 57.7138 17.3719 57.9668 17.5C58.2199 17.6281 58.4122 17.851 58.502 18.1201C58.5917 18.3892 58.5718 18.6831 58.4463 18.9375C58.3364 19.16 58.1533 19.3368 57.9297 19.4395L57.8311 19.4795L56.0869 20.0596L57.3594 21.9678L57.4131 22.0596C57.528 22.278 57.565 22.5304 57.5156 22.7744C57.4591 23.0534 57.2944 23.2991 57.0576 23.457C56.8208 23.6149 56.5312 23.6722 56.252 23.6172C55.9727 23.5621 55.7265 23.399 55.5674 23.1631L54.4092 21.4258L53.251 23.1611L53.252 23.1621C53.1739 23.2805 53.0726 23.3825 52.9551 23.4619C52.8375 23.5413 52.7054 23.5968 52.5664 23.625C52.4273 23.6532 52.2838 23.6543 52.1445 23.627C52.0053 23.5996 51.8729 23.5445 51.7549 23.4658C51.6369 23.3872 51.5358 23.2859 51.457 23.168C51.3783 23.05 51.3234 22.9175 51.2959 22.7783C51.2684 22.6391 51.2688 22.4955 51.2969 22.3564C51.325 22.2175 51.3798 22.0853 51.459 21.9678L52.7305 20.0596L50.9883 19.4795C50.8529 19.4358 50.7273 19.3659 50.6191 19.2734C50.5109 19.181 50.4227 19.0674 50.3584 18.9404C50.2942 18.8135 50.2555 18.6751 50.2451 18.5332C50.2347 18.3915 50.252 18.2491 50.2969 18.1143C50.3418 17.9794 50.4135 17.8543 50.5068 17.7471C50.6002 17.6399 50.7144 17.5523 50.8418 17.4893C50.9694 17.4262 51.1089 17.3889 51.251 17.3799C51.3926 17.3709 51.5347 17.3894 51.6689 17.4355L53.332 17.9902V16.4043C53.332 16.1188 53.4457 15.8445 53.6475 15.6426C53.8494 15.4406 54.1236 15.3272 54.4092 15.3271Z" fill="#64D370" stroke="#64D370" stroke-width="0.1"/>
<path d="M5.11719 24.5693C5.40281 24.5693 5.67694 24.6828 5.87891 24.8848C6.08076 25.0867 6.19434 25.3609 6.19434 25.6465V27.2324L7.85742 26.6787L7.8584 26.6777C8.12833 26.5908 8.42177 26.6141 8.6748 26.7422C8.92793 26.8703 9.12018 27.0932 9.20996 27.3623C9.29968 27.6314 9.27982 27.9253 9.1543 28.1797C9.04441 28.4022 8.8613 28.579 8.6377 28.6816L8.53906 28.7217L6.79492 29.3018L8.06738 31.21C8.14661 31.3275 8.20138 31.4597 8.22949 31.5986C8.2576 31.7377 8.25792 31.8813 8.23047 32.0205C8.20301 32.1597 8.14812 32.2922 8.06934 32.4102C7.99056 32.5281 7.88948 32.6293 7.77148 32.708C7.65342 32.7867 7.52108 32.8418 7.38184 32.8691C7.2426 32.8965 7.09903 32.8954 6.95996 32.8672C6.82106 32.839 6.68876 32.7844 6.57129 32.7051C6.45386 32.6258 6.35344 32.5235 6.27539 32.4053L5.11719 30.668L3.95898 32.4033L3.95996 32.4043C3.8819 32.5227 3.78062 32.6247 3.66309 32.7041C3.54553 32.7835 3.41344 32.839 3.27441 32.8672C3.13534 32.8954 2.99178 32.8965 2.85254 32.8691C2.71333 32.8418 2.58093 32.7867 2.46289 32.708C2.34492 32.6293 2.2438 32.5281 2.16504 32.4102C2.08627 32.2922 2.03137 32.1597 2.00391 32.0205C1.97646 31.8813 1.97678 31.7377 2.00488 31.5986C2.03297 31.4597 2.08779 31.3275 2.16699 31.21L3.43848 29.3018L1.69629 28.7217C1.56089 28.678 1.43531 28.608 1.32715 28.5156C1.21896 28.4232 1.13067 28.3096 1.06641 28.1826C1.00217 28.0557 0.963554 27.9173 0.953125 27.7754C0.942726 27.6337 0.960014 27.4913 1.00488 27.3564C1.04985 27.2216 1.12146 27.0965 1.21484 26.9893C1.30826 26.8821 1.42237 26.7944 1.5498 26.7314C1.67741 26.6684 1.81696 26.6311 1.95898 26.6221C2.10062 26.6131 2.24274 26.6316 2.37695 26.6777L4.04004 27.2324V25.6465C4.04004 25.361 4.15366 25.0867 4.35547 24.8848C4.55741 24.6828 4.8316 24.5694 5.11719 24.5693Z" fill="#64D370" stroke="#64D370" stroke-width="0.1"/>
<path d="M11.2788 3.00391C11.5644 3.00391 11.8386 3.11739 12.0405 3.31934C12.2425 3.5213 12.356 3.79544 12.356 4.08105V5.66699L14.019 5.11328L14.02 5.1123C14.2899 5.02531 14.5834 5.04877 14.8364 5.17676C15.0896 5.3049 15.2828 5.52768 15.3726 5.79688C15.4623 6.06604 15.4415 6.35984 15.3159 6.61426C15.206 6.83688 15.0231 7.01359 14.7993 7.11621L14.7007 7.15625L12.9575 7.73633L14.229 9.64453C14.3856 9.88209 14.4417 10.1723 14.3853 10.4512C14.3287 10.7301 14.1641 10.9759 13.9272 11.1338C13.6905 11.2916 13.4007 11.349 13.1216 11.2939C12.8424 11.2388 12.5961 11.0757 12.437 10.8398L11.2788 9.10156L10.1216 10.8398C9.96323 11.0773 9.71684 11.2418 9.43701 11.2979C9.15697 11.3538 8.86604 11.2961 8.62842 11.1377C8.39079 10.9792 8.22543 10.7332 8.16943 10.4531C8.1135 10.1731 8.17118 9.88212 8.32959 9.64453L9.6001 7.73633L7.85791 7.15625C7.58959 7.06386 7.36833 6.86871 7.24268 6.61426C7.11704 6.35983 7.09631 6.06607 7.18604 5.79688C7.27579 5.52766 7.46896 5.30491 7.72217 5.17676C7.97527 5.04875 8.26862 5.02528 8.53857 5.1123H8.53955L10.2026 5.66699V4.08105C10.2026 3.79544 10.3161 3.5213 10.5181 3.31934C10.7199 3.11751 10.9934 3.00403 11.2788 3.00391Z" fill="#64D370" stroke="#64D370" stroke-width="0.1"/>
<path d="M59.5454 5.05786C60.14 5.05809 60.6216 5.54038 60.6216 6.13501C60.6214 6.72945 60.1398 7.21095 59.5454 7.21118C58.9508 7.21118 58.4685 6.72959 58.4683 6.13501C58.4683 5.54024 58.9506 5.05786 59.5454 5.05786Z" fill="#64D370" stroke="#64D370" stroke-width="0.1"/>
<path d="M17.4395 20.4619C18.034 20.4621 18.5156 20.9444 18.5156 21.5391C18.5154 22.1335 18.0339 22.615 17.4395 22.6152C16.8448 22.6152 16.3625 22.1336 16.3623 21.5391C16.3623 20.9443 16.8447 20.4619 17.4395 20.4619Z" fill="#64D370" stroke="#64D370" stroke-width="0.1"/>
<path d="M32.8447 0.950195C33.4393 0.950422 33.9209 1.43271 33.9209 2.02734C33.9207 2.62178 33.4392 3.10329 32.8447 3.10352C32.2501 3.10352 31.7678 2.62192 31.7676 2.02734C31.7676 1.43258 32.25 0.950195 32.8447 0.950195Z" fill="#64D370" stroke="#64D370" stroke-width="0.1"/>
<path d="M61.5991 41C62.1937 41.0002 62.6753 41.4825 62.6753 42.0771C62.6751 42.6716 62.1936 43.1531 61.5991 43.1533C61.0045 43.1533 60.5222 42.6717 60.522 42.0771C60.522 41.4824 61.0044 41 61.5991 41Z" fill="#64D370" stroke="#64D370" stroke-width="0.1"/>
</svg>
