<svg width="67" height="67" viewBox="0 0 67 67" fill="none" xmlns="http://www.w3.org/2000/svg">
<path d="M60.0145 45.4226L45.0033 54.3161L39.2855 50.7029H46.4743C47.5746 50.7029 48.6299 50.2658 49.4079 49.4877C50.186 48.7097 50.6231 47.6544 50.6231 46.5541C50.6231 45.4537 50.186 44.3984 49.4079 43.6204C48.6299 42.8423 47.5746 42.4052 46.4743 42.4052H34.1258C32.7056 42.3969 31.2962 42.6527 29.9695 43.1596L20.3668 47.5196V46.5541C20.3668 46.254 20.2476 45.9662 20.0354 45.754C19.8232 45.5418 19.5354 45.4226 19.2353 45.4226H10.9377C10.6376 45.4226 10.3498 45.5418 10.1376 45.754C9.92536 45.9662 9.80615 46.254 9.80615 46.5541V65.4124C9.80615 65.7125 9.92536 66.0003 10.1376 66.2125C10.3498 66.4247 10.6376 66.5439 10.9377 66.5439H19.2353C19.5354 66.5439 19.8232 66.4247 20.0354 66.2125C20.2476 66.0003 20.3668 65.7125 20.3668 65.4124V64.2809H43.819C45.3033 64.2833 46.7503 63.816 47.9527 62.9457L63.9899 51.4572C64.6603 50.8793 65.0974 50.077 65.2196 49.2003C65.3417 48.3236 65.1405 47.4325 64.6536 46.6933C64.1666 45.9541 63.4272 45.4175 62.5735 45.1836C61.7198 44.9498 60.8102 45.0347 60.0145 45.4226ZM18.1038 64.2809H12.0691V47.6856H18.1038V64.2809ZM62.6773 49.6544L46.6327 61.1127C45.8136 61.7035 44.8289 62.0203 43.819 62.0179H20.3668V50.0014L30.8369 45.2717C31.8869 44.8702 33.0018 44.6657 34.1258 44.6682H46.4743C46.9744 44.6682 47.4541 44.8669 47.8077 45.2206C48.1614 45.5742 48.3601 46.0539 48.3601 46.5541C48.3601 47.0542 48.1614 47.5339 47.8077 47.8875C47.4541 48.2412 46.9744 48.4399 46.4743 48.4399H35.378C35.1325 48.4396 34.8935 48.5192 34.6971 48.6667C34.5008 48.8142 34.3577 49.0215 34.2896 49.2574C34.2214 49.4934 34.2319 49.745 34.3194 49.9745C34.4069 50.2039 34.5666 50.3987 34.7746 50.5294L44.3772 56.564C44.5554 56.6734 44.7603 56.7314 44.9694 56.7314C45.1784 56.7314 45.3834 56.6734 45.5615 56.564L61.1762 47.2933C61.482 47.1141 61.845 47.0594 62.19 47.1406C62.5351 47.2217 62.8357 47.4324 63.0296 47.7291C63.2235 48.0258 63.2958 48.3857 63.2317 48.7343C63.1675 49.0828 62.9717 49.3934 62.6849 49.6016L62.6773 49.6544Z" fill="#64D370"/>
<path d="M65.2498 36.3704H62.6096C62.419 29.4365 59.7561 22.7991 55.1014 17.6561C50.4467 12.5131 44.1069 9.20344 37.2263 8.32437C37.8573 7.61886 38.2706 6.74581 38.4163 5.81059C38.562 4.87537 38.4339 3.91797 38.0475 3.05395C37.661 2.18992 37.0328 1.45621 36.2386 0.941375C35.4443 0.426539 34.5181 0.152588 33.5716 0.152588C32.6251 0.152588 31.6988 0.426539 30.9046 0.941375C30.1103 1.45621 29.4821 2.18992 29.0957 3.05395C28.7092 3.91797 28.5811 4.87537 28.7269 5.81059C28.8726 6.74581 29.2859 7.61886 29.9168 8.32437C23.0342 9.2003 16.6918 12.5088 12.0353 17.6523C7.37879 22.7957 4.71531 29.4349 4.52599 36.3704H1.1315C0.831407 36.3704 0.543605 36.4897 0.331408 36.7019C0.119211 36.9141 0 37.2019 0 37.5019C0 37.802 0.119211 38.0898 0.331408 38.302C0.543605 38.5142 0.831407 38.6334 1.1315 38.6334H65.2498C65.5499 38.6334 65.8377 38.5142 66.0499 38.302C66.262 38.0898 66.3813 37.802 66.3813 37.5019C66.3813 37.2019 66.262 36.9141 66.0499 36.7019C65.8377 36.4897 65.5499 36.3704 65.2498 36.3704ZM33.5678 2.42549C34.09 2.42549 34.6004 2.58033 35.0346 2.87043C35.4688 3.16054 35.8072 3.57288 36.007 4.0553C36.2068 4.53773 36.2591 5.06858 36.1572 5.58072C36.0554 6.09286 35.8039 6.56329 35.4347 6.93253C35.0654 7.30176 34.595 7.55321 34.0829 7.65508C33.5707 7.75696 33.0399 7.70467 32.5574 7.50484C32.075 7.30502 31.6627 6.96662 31.3726 6.53245C31.0825 6.09827 30.9276 5.58782 30.9276 5.06565C30.9276 4.36544 31.2058 3.6939 31.7009 3.19877C32.196 2.70365 32.8676 2.42549 33.5678 2.42549ZM33.5678 10.346C40.5395 10.3489 47.2356 13.0684 52.2353 17.9272C57.2349 22.786 60.1445 29.4017 60.3466 36.3704H6.78899C6.9911 29.4017 9.90069 22.786 14.9003 17.9272C19.9 13.0684 26.5961 10.3489 33.5678 10.346Z" fill="#64D370"/>
<path d="M27.4861 15.709C24.3778 16.5892 21.4987 18.1364 19.0495 20.243C16.6003 22.3496 14.6398 24.9649 13.3046 27.9066C13.2296 28.0437 13.1837 28.1948 13.1699 28.3505C13.1562 28.5062 13.1748 28.663 13.2247 28.8112C13.2745 28.9593 13.3545 29.0955 13.4596 29.2111C13.5648 29.3268 13.6927 29.4194 13.8354 29.4832C13.9781 29.547 14.1324 29.5805 14.2887 29.5816C14.445 29.5828 14.5998 29.5515 14.7434 29.4899C14.8871 29.4282 15.0163 29.3375 15.1231 29.2234C15.2299 29.1093 15.3119 28.9743 15.364 28.8269C16.566 26.1879 18.3284 23.8425 20.5286 21.9536C22.7289 20.0647 25.3141 18.6777 28.1046 17.8891C28.2478 17.8484 28.3815 17.78 28.4982 17.6877C28.6149 17.5954 28.7123 17.4811 28.7848 17.3511C28.8573 17.2212 28.9035 17.0782 28.9208 16.9304C28.938 16.7827 28.926 16.6329 28.8854 16.4898C28.8448 16.3466 28.7764 16.2129 28.6841 16.0962C28.5918 15.9795 28.4774 15.8821 28.3474 15.8096C28.2175 15.7371 28.0746 15.6909 27.9268 15.6737C27.779 15.6564 27.6292 15.6684 27.4861 15.709Z" fill="#64D370"/>
</svg>
